<svg xmlns="http://www.w3.org/2000/svg" xmlns:xlink="http://www.w3.org/1999/xlink" width="16" height="16" viewBox="0 0 4.2333333 4.2333333"><defs><linearGradient id="p"><stop offset="0" stop-color="#e3220c"/><stop offset="1" stop-color="#ee0701"/></linearGradient><linearGradient id="n"><stop offset="0" stop-color="#d04400"/><stop offset="1" stop-color="#e72509"/></linearGradient><linearGradient id="o"><stop offset="0" stop-color="#b15f0b"/><stop offset="1" stop-color="#db3b21"/></linearGradient><linearGradient id="m"><stop offset="0" stop-color="#9c6d12"/><stop offset="1" stop-color="#b75f02"/></linearGradient><linearGradient id="l"><stop offset="0" stop-color="#080"/><stop offset="1" stop-color="#218800"/></linearGradient><linearGradient id="k"><stop offset="0" stop-color="#008647"/><stop offset="1" stop-color="#697b6a"/></linearGradient><linearGradient id="i"><stop offset="0" stop-color="#008189"/><stop offset="1" stop-color="#317f87"/></linearGradient><linearGradient id="j"><stop offset="0" stop-color="#286cfe"/><stop offset="1" stop-color="#006aff"/></linearGradient><linearGradient id="h"><stop offset="0" stop-color="#006aff"/><stop offset="1" stop-color="#286cfe"/></linearGradient><linearGradient id="g"><stop offset="0" stop-color="#556fc9"/><stop offset="1" stop-color="#92639e"/></linearGradient><linearGradient id="f"><stop offset="0" stop-color="#7f63d6"/><stop offset="1" stop-color="#9c5db7"/></linearGradient><linearGradient id="d"><stop offset="0" stop-color="#984de3"/><stop offset="1" stop-color="#d217c4"/></linearGradient><linearGradient id="e"><stop offset="0" stop-color="#b60fff"/><stop offset="1" stop-color="#d600c5"/></linearGradient><linearGradient id="c"><stop offset="0" stop-color="#d500c3"/><stop offset="1" stop-color="#e50183"/></linearGradient><linearGradient id="b"><stop offset="0" stop-color="#be449d"/><stop offset="1" stop-color="#e90068"/></linearGradient><linearGradient id="a"><stop offset="0" stop-color="#c94658"/><stop offset="1" stop-color="#ee0221"/></linearGradient><linearGradient xlink:href="#a" id="r" x1="-.0103753" x2="4.2229578" y1=".12191636" y2=".12191636" gradientTransform="translate(.0103753 .0103753)" gradientUnits="userSpaceOnUse"/><linearGradient xlink:href="#b" id="s" x1="-.0103753" x2="4.2229578" y1=".12191636" y2=".12191636" gradientTransform="translate(.0103753 .27495863)" gradientUnits="userSpaceOnUse"/><linearGradient xlink:href="#c" id="t" x1="-.0103753" x2="4.2229578" y1=".12191636" y2=".12191636" gradientTransform="translate(.0103754 .53954198)" gradientUnits="userSpaceOnUse"/><linearGradient xlink:href="#d" id="u" x1="-.0103753" x2="4.2229578" y1=".12191636" y2=".12191636" gradientTransform="translate(.01037537 1.0687087)" gradientUnits="userSpaceOnUse"/><linearGradient xlink:href="#e" id="v" x1="-.0103753" x2="4.2229578" y1=".12191636" y2=".12191636" gradientTransform="translate(.01037542 .80412547)" gradientUnits="userSpaceOnUse"/><linearGradient xlink:href="#f" id="w" x1="-.0103753" x2="4.2229578" y1=".12191636" y2=".12191636" gradientTransform="translate(.0103753 1.333292)" gradientUnits="userSpaceOnUse"/><linearGradient xlink:href="#g" id="x" x1="-.0103753" x2="4.2229578" y1=".12191636" y2=".12191636" gradientTransform="translate(.0103753 1.5978753)" gradientUnits="userSpaceOnUse"/><linearGradient xlink:href="#h" id="y" x1="-.0103753" x2="4.2229578" y1=".12191636" y2=".12191636" gradientTransform="translate(.0103754 1.8624587)" gradientUnits="userSpaceOnUse"/><linearGradient xlink:href="#i" id="z" x1="-.0103753" x2="4.2229578" y1=".12191636" y2=".12191636" gradientTransform="translate(.01037537 2.3916254)" gradientUnits="userSpaceOnUse"/><linearGradient xlink:href="#j" id="A" x1="-.0103753" x2="4.2229578" y1=".12191636" y2=".12191636" gradientTransform="translate(.01037542 2.1270422)" gradientUnits="userSpaceOnUse"/><linearGradient xlink:href="#k" id="B" x1="-.0103753" x2="4.2229578" y1=".12191636" y2=".12191636" gradientTransform="translate(.01037525 2.6562087)" gradientUnits="userSpaceOnUse"/><linearGradient xlink:href="#l" id="C" x1="-.0103753" x2="4.2229578" y1=".12191636" y2=".12191636" gradientTransform="translate(.01037525 2.920792)" gradientUnits="userSpaceOnUse"/><linearGradient xlink:href="#m" id="D" x1="-.0103753" x2="4.2229578" y1=".12191636" y2=".12191636" gradientTransform="translate(.01037535 3.1853754)" gradientUnits="userSpaceOnUse"/><linearGradient xlink:href="#n" id="E" x1="-.0103753" x2="4.2229578" y1=".12191636" y2=".12191636" gradientTransform="translate(.01037535 3.7145421)" gradientUnits="userSpaceOnUse"/><linearGradient xlink:href="#o" id="G" x1="-.0103753" x2="4.2229578" y1=".12191636" y2=".12191636" gradientTransform="translate(.01037535 3.4499589)" gradientUnits="userSpaceOnUse"/><linearGradient xlink:href="#p" id="F" x1="-.0103753" x2="4.2229578" y1=".12191636" y2=".12191636" gradientTransform="translate(.01037536 3.9791256)" gradientUnits="userSpaceOnUse"/><clipPath id="q" clipPathUnits="userSpaceOnUse">
    <path 
    fill="#ee0701" 
    stroke="#000" 
    stroke-linecap="round" 
    stroke-linejoin="round" 
    stroke-width="0" 
    d="m3.04270827.51271544.9260416 1.60395121-.9260417 1.60395118H1.1906249l-.92604165-1.6039512.92604167-1.6039512z"/></clipPath></defs><g clip-path="url(#q)" transform="rotate(90 2.1166666 2.1166667)"><path fill="url(#r)" d="M0 0h4.2333331v.26458332H0Z"/><path fill="url(#s)" d="M0 .26458332h4.2333331v.26458332H0Z"/><path fill="url(#t)" d="M0 .52916664h4.2333331v.26458332H0Z"/><path fill="url(#u)" d="M0 1.0583333h4.2333331v.2645833H0Z"/><path fill="url(#v)" d="M0 .79374999h4.2333331v.26458331H0Z"/><path fill="url(#w)" d="M0 1.3229167h4.2333331v.2645834H0Z"/><path fill="url(#x)" d="M0 1.5875h4.2333331v.2645833H0Z"/><path fill="url(#y)" d="M0 1.8520833h4.2333331v.2645833H0Z"/><path fill="url(#z)" d="M0 2.3812499h4.2333331v.2645833H0Z"/><path fill="url(#A)" d="M0 2.1166668h4.2333331v.2645833H0Z"/><path fill="url(#B)" d="M0 2.6458333h4.2333331v.2645833H0Z"/><path fill="url(#C)" d="M0 2.9104166h4.2333331v.2645833H0Z"/><path fill="url(#D)" d="M0 3.175h4.2333331v.2645833H0Z"/><path fill="url(#E)" d="M0 3.7041664h4.2333331v.2645833H0Z"/><path fill="url(#F)" d="M0 3.96875h4.2333331v.2645833H0Z"/><path fill="url(#G)" d="M0 3.4395833h4.2333331v.2645833H0Z"/></g>
    <path class="a" fill="none" stroke="#000" stroke-linecap="round" stroke-linejoin="round" stroke-width=".26458329" d="m3.72061786 3.04270837-1.60395121.9260416-1.60395118-.9260417V1.190625l1.6039512-.92604165 1.6039512.92604167z"/>
    <style>
+     @media (prefers-color-scheme: dark) {
+     .a { stroke:#fff }
+     }
+   </style>
</svg>